<?xml version="1.0"?>
<svg xmlns="http://www.w3.org/2000/svg" xmlns:xlink="http://www.w3.org/1999/xlink" xmlns:svgjs="http://svgjs.com/svgjs" version="1.1" width="512" height="512" x="0" y="0" viewBox="0 0 512 512" style="enable-background:new 0 0 512 512" xml:space="preserve"><g>
<g xmlns="http://www.w3.org/2000/svg">
	<g>
		<path d="M448,64h-48V16c0-8.832-7.168-16-16-16H96C69.536,0,48,21.536,48,48v400c0,35.296,28.704,64,64,64h336    c8.832,0,16-7.168,16-16V80C464,71.168,456.832,64,448,64z M96,32h272v32H96c-8.8,0-16-7.2-16-16S87.2,32,96,32z M432,480H112    c-17.664,0-32-14.336-32-32V93.056C85.024,94.848,90.368,96,96,96h336V480z" fill="#271b73" data-original="#000000" style=""/>
	</g>
</g>
<g xmlns="http://www.w3.org/2000/svg">
	<g>
		<path d="M256,192c-26.464,0-48,21.536-48,48s21.536,48,48,48s48-21.536,48-48S282.464,192,256,192z M256,256c-8.8,0-16-7.2-16-16    s7.2-16,16-16s16,7.2,16,16S264.8,256,256,256z" fill="#271b73" data-original="#000000" style=""/>
	</g>
</g>
<g xmlns="http://www.w3.org/2000/svg">
	<g>
		<path d="M256,128c-61.76,0-112,50.24-112,112c0,57.504,89.856,159.296,100.096,170.688c3.04,3.36,7.36,5.312,11.904,5.312    s8.864-1.952,11.904-5.312C278.144,399.296,368,297.504,368,240C368,178.24,317.76,128,256,128z M256,375.584    C221.056,334.144,176,270.56,176,240c0-44.128,35.872-80,80-80s80,35.872,80,80C336,270.496,290.944,334.144,256,375.584z" fill="#271b73" data-original="#000000" style=""/>
	</g>
</g>
<g xmlns="http://www.w3.org/2000/svg">
</g>
<g xmlns="http://www.w3.org/2000/svg">
</g>
<g xmlns="http://www.w3.org/2000/svg">
</g>
<g xmlns="http://www.w3.org/2000/svg">
</g>
<g xmlns="http://www.w3.org/2000/svg">
</g>
<g xmlns="http://www.w3.org/2000/svg">
</g>
<g xmlns="http://www.w3.org/2000/svg">
</g>
<g xmlns="http://www.w3.org/2000/svg">
</g>
<g xmlns="http://www.w3.org/2000/svg">
</g>
<g xmlns="http://www.w3.org/2000/svg">
</g>
<g xmlns="http://www.w3.org/2000/svg">
</g>
<g xmlns="http://www.w3.org/2000/svg">
</g>
<g xmlns="http://www.w3.org/2000/svg">
</g>
<g xmlns="http://www.w3.org/2000/svg">
</g>
<g xmlns="http://www.w3.org/2000/svg">
</g>
</g></svg>
